# xmcd CD database file
#
# Track frame offsets:
#	150
#	13126
#	30593
#	47767
#	62629
#
# Disc length: 1130 seconds
#
# Revision: 0
# Processed by: cddbd v1.5.2PL0 Copyright (c) Steve Scherf et al.
# Submitted via: CDex 1.70beta2
#
DISCID=39046805
DTITLE=ししまいブラザーズ - 暑中見舞
DYEAR=2009
DGENRE=東方アレンジ
TTITLE0=急々如律令
TTITLE1=少女達の夏祭り
TTITLE2=迎え火
TTITLE3=おてんば娘の初恋
TTITLE4=送り火
EXTD=YEAR: 2009
EXTT0=
EXTT1=
EXTT2=
EXTT3=
EXTT4=
PLAYORDER=
